<svg xmlns="http://www.w3.org/2000/svg" viewBox="0 0 500 160">
  <g fill="none" stroke="#8b6a3e" stroke-width="2">
    <!-- floral/butterfly-style logo -->
    <path d="M390 78c-12-18-30-18-30-5 0 9 10 13 20 10-9 8-5 21 5 17 7-3 8-12 5-22z"/>
    <path d="M390 78c12-18 30-18 30-5 0 9-10 13-20 10 9 8 5 21-5 17-7-3-8-12-5-22z"/>
    <path d="M390 68v32"/>
    <circle cx="390" cy="64" r="3"/>
  </g>

  <!-- Arabic: Tufuli Arabic DEMO -->
  <text
    x="70"
    y="105"
    direction="rtl"
    unicode-bidi="bidi-override"
    font-family="TNaveid Arabic DEMO"
    font-size="72"
    fill="#8b6a3e"
    text-anchor="middle">نور</text>

</svg>
